<svg xmlns="http://www.w3.org/2000/svg" width="805" height="600"><rect width="805" height="600" x="0" y="0" fill="#FFFFFF" id="background"/><g transform="translate(20,20)" id="viz"><g id="nodes"><g transform="translate(383.5,281)"><path id="p_944.5" d="M-5.143516556418883e-14,280A280,280,0,1,1,5.143516556418883e-14,-280A280,280,0,1,1,-5.143516556418883e-14,280Z" fill="none" stroke="#ccc"/></g><g transform="translate(296.383969187684,281)" id=""><path id="p_768.3302229899593" d="M-3.507625777922019e-14,190.94625380227535A190.94625380227535,190.94625380227535,0,1,1,3.507625777922019e-14,-190.94625380227535A190.94625380227535,190.94625380227535,0,1,1,-3.507625777922019e-14,190.94625380227535Z" fill="none" stroke="#ccc"/></g><g transform="translate(575.4151114949797,281)" id="Europe"><path id="p_942.5622846145914" d="M-1.5824978972478803e-14,86.1471731196117A86.1471731196117,86.1471731196117,0,1,1,1.5824978972478803e-14,-86.1471731196117A86.1471731196117,86.1471731196117,0,1,1,-1.5824978972478803e-14,86.1471731196117Z" fill="none" stroke="#ccc"/></g><g transform="translate(489.3907372769938,307.5306662490221)" id="North America"><path id="p_798.8591189114245" d="M-3.559525416598911e-16,1.9377153854086429A1.9377153854086429,1.9377153854086429,0,1,1,3.559525416598911e-16,-1.9377153854086429A1.9377153854086429,1.9377153854086429,0,1,1,-3.559525416598911e-16,1.9377153854086429Z" fill="none" stroke="#ccc"/></g><g transform="translate(489.3907372769938,254.4693337509779)" id="South America"><path id="p_745.7977864133803" d="M-3.559525416598911e-16,1.9377153854086429A1.9377153854086429,1.9377153854086429,0,1,1,3.559525416598911e-16,-1.9377153854086429A1.9377153854086429,1.9377153854086429,0,1,1,-3.559525416598911e-16,1.9377153854086429Z" fill="none" stroke="#ccc"/></g><g transform="translate(489.4459344694643,247.53766686082145)" id="Australian continent"><path id="p_740.0400572150729" d="M-5.614618374059607e-16,3.056455884787202A3.056455884787202,3.056455884787202,0,1,1,5.614618374059607e-16,-3.056455884787202A3.056455884787202,3.056455884787202,0,1,1,-5.614618374059607e-16,3.056455884787202Z" fill="none" stroke="#ccc"/></g><g transform="translate(488.51327639509196,313.2772070027605)" id="Africa"><path id="p_803.7281987832612" d="M-3.559525416598911e-16,1.9377153854086429A1.9377153854086429,1.9377153854086429,0,1,1,3.559525416598911e-16,-1.9377153854086429A1.9377153854086429,1.9377153854086429,0,1,1,-3.559525416598911e-16,1.9377153854086429Z" fill="none" stroke="#ccc"/></g><g transform="translate(239.56088289658442,281)" id="Lima"><path id="p_652.7463350223516" d="M-2.4282073625949956e-14,132.1854521257671A132.1854521257671,132.1854521257671,0,1,1,2.4282073625949956e-14,-132.1854521257671A132.1854521257671,132.1854521257671,0,1,1,-2.4282073625949956e-14,132.1854521257671Z" fill="#1f77b4" stroke="none"/></g><g transform="translate(429.53827900615545,281)" id="Sanaa"><path id="p_766.3925076045507" d="M-1.0260255340780395e-14,55.85422859839525A55.85422859839525,55.85422859839525,0,1,1,1.0260255340780395e-14,-55.85422859839525A55.85422859839525,55.85422859839525,0,1,1,-1.0260255340780395e-14,55.85422859839525Z" fill="#1f77b4" stroke="none"/></g><g transform="translate(382.4042990340075,346.79762342610354)" id="Verona"><path id="p_752.3478516664162" d="M-4.251838217368918e-15,23.14592920630511A23.14592920630511,23.14592920630511,0,1,1,4.251838217368918e-15,-23.14592920630511A23.14592920630511,23.14592920630511,0,1,1,-4.251838217368918e-15,23.14592920630511Z" fill="#1f77b4" stroke="none"/></g><g transform="translate(382.06527672166067,216.49125482943566)" id="Brunswick"><path id="p_620.8586831635625" d="M-4.096838787945861e-15,22.302151612466226A22.302151612466226,22.302151612466226,0,1,1,4.096838787945861e-15,-22.302151612466226A22.302151612466226,22.302151612466226,0,1,1,-4.096838787945861e-15,22.302151612466226Z" fill="#1f77b4" stroke="none"/></g><g transform="translate(355.7906174411987,186.1528924580332)" id="Ulm"><path id="p_557.8380913426013" d="M-2.919787243261384e-15,15.894581443369379A15.894581443369379,15.894581443369379,0,1,1,2.919787243261384e-15,-15.894581443369379A15.894581443369379,15.894581443369379,0,1,1,-2.919787243261384e-15,15.894581443369379Z" fill="#1f77b4" stroke="none"/></g><g transform="translate(354.6944213338038,375.6682126158074)" id="Trier"><path id="p_745.2958388380964" d="M-2.743185235154243e-15,14.933204888485157A14.933204888485157,14.933204888485157,0,1,1,2.743185235154243e-15,-14.933204888485157A14.933204888485157,14.933204888485157,0,1,1,-2.743185235154243e-15,14.933204888485157Z" fill="#1f77b4" stroke="none"/></g><g transform="translate(331.83882820103645,164.8398661792151)" id="Cottbus"><path id="p_510.90779641313804" d="M-2.6138436388973326e-15,14.229102032886503A14.229102032886503,14.229102032886503,0,1,1,2.6138436388973326e-15,-14.229102032886503A14.229102032886503,14.229102032886503,0,1,1,-2.6138436388973326e-15,14.229102032886503Z" fill="#1f77b4" stroke="none"/></g><g transform="translate(332.6815110242482,390.7692094089351)" id="Skierniewice"><path id="p_733.2745248149699" d="M-1.8046035887407105e-15,9.823804381786628A9.823804381786628,9.823804381786628,0,1,1,1.8046035887407105e-15,-9.823804381786628A9.823804381786628,9.823804381786628,0,1,1,-1.8046035887407105e-15,9.823804381786628Z" fill="#1f77b4" stroke="none"/></g><g transform="translate(317.15295451213234,171.59938535072757)" id="Caserta"><path id="p_488.7523398628599" d="M0,0Z" fill="#1f77b4" stroke="none"/></g><g transform="translate(321.47320138910976,387.20450151669655)" id="Juba"><path id="p_708.6777029058063" d="M0,0Z" fill="#1f77b4" stroke="none"/></g><g transform="translate(371.43835935819766,194.7050257058633)" id="Dar es Salaam"><path id="p_566.143385064061" d="M0,0Z" fill="#1f77b4" stroke="none"/></g><g transform="translate(319.93032637788883,388.376797390015)" id="Khartoum"><path id="p_708.3071237679038" d="M0,0Z" fill="#1f77b4" stroke="none"/></g><g transform="translate(370.01773394836994,368.6095979213819)" id="Whitehorse"><path id="p_738.6273318697519" d="M0,0Z" fill="#1f77b4" stroke="none"/></g><g transform="translate(318.3706763355888,389.52668114953286)" id="Yellowknife"><path id="p_707.8973574851217" d="M0,0Z" fill="#1f77b4" stroke="none"/></g><g transform="translate(402.0990514797713,230.13746386403398)" id="Leipzig"><path id="p_632.2365153438052" d="M0,0Z" fill="#1f77b4" stroke="none"/></g><g transform="translate(320.9433299240167,390.02863416475446)" id="Edmonton"><path id="p_710.9719640887712" d="M0,0Z" fill="#1f77b4" stroke="none"/></g><g transform="translate(316.79457679859274,390.6539127869216)" id="Regina"><path id="p_707.4484895855144" d="M0,0Z" fill="#1f77b4" stroke="none"/></g><g transform="translate(402.8436371248587,332.2572422615229)" id="Charlottetown"><path id="p_735.1008793863816" d="M0,0Z" fill="#1f77b4" stroke="none"/></g><g transform="translate(319.3836798817167,391.17851792427234)" id="Fredericton"><path id="p_710.5621978059891" d="M0,0Z" fill="#1f77b4" stroke="none"/></g><g transform="translate(315.5643564236651,170.4898372318217)" id="Halifax"><path id="p_486.0541936554868" d="M0,0Z" fill="#1f77b4" stroke="none"/></g><g transform="translate(315.20235673668765,391.7582570218938)" id="Birmingham"><path id="p_706.9606137585815" d="M0,0Z" fill="#1f77b4" stroke="none"/></g><g transform="translate(317.8075803447206,392.30574956166106)" id="Nassau"><path id="p_710.1133299063816" d="M0,0Z" fill="#1f77b4" stroke="none"/></g><g transform="translate(313.9598945867966,169.4033552352465)" id="Palermo"><path id="p_483.36324982204314" d="M0,0Z" fill="#1f77b4" stroke="none"/></g><g transform="translate(313.59434848440117,392.8394833513123)" id="Parma"><path id="p_706.4338318357135" d="M0,0Z" fill="#1f77b4" stroke="none"/></g><g transform="translate(316.1236771487317,168.63460106320048)" id="Pescara"><path id="p_484.7582782119322" d="M0,0Z" fill="#1f77b4" stroke="none"/></g><g transform="translate(316.21536028281554,393.4100937966333)" id="Siena"><path id="p_709.6254540794489" d="M0,0Z" fill="#1f77b4" stroke="none"/></g><g transform="translate(321.0110975149038,392.23030343569616)" id="Urbino"><path id="p_713.2414009505999" d="M0,0Z" fill="#1f77b4" stroke="none"/></g><g transform="translate(312.3399038912065,168.34016613586158)" id="Udine"><path id="p_480.6800700270681" d="M0,0Z" fill="#1f77b4" stroke="none"/></g><g transform="translate(311.9708876716348,393.8973660973014)" id="Asunción"><path id="p_705.8682537689363" d="M0,0Z" fill="#1f77b4" stroke="none"/></g><g transform="translate(314.5192153118632,167.54811906662528)" id="Würzburg"><path id="p_482.06733437848845" d="M0,0Z" fill="#1f77b4" stroke="none"/></g><g transform="translate(314.60735203052906,394.49132012605185)" id="Paramaribo"><path id="p_709.098672156581" d="M0,0Z" fill="#1f77b4" stroke="none"/></g><g transform="translate(310.70472246781986,167.30049184674)" id="Kathmandu"><path id="p_478.00521431455985" d="M0,0Z" fill="#1f77b4" stroke="none"/></g><g transform="translate(319.4349979779077,393.3575350730849)" id="Belmopan"><path id="p_712.7925330509926" d="M0,0Z" fill="#1f77b4" stroke="none"/></g><g transform="translate(344.30288526631523,388.9589586086464)" id="San José"><path id="p_733.2618438749616" d="M0,0Z" fill="#1f77b4" stroke="none"/></g><g transform="translate(310.3323131536103,394.93168445435117)" id="Perth"><path id="p_705.2639976079615" d="M0,0Z" fill="#1f77b4" stroke="none"/></g><g transform="translate(312.89922461627316,166.48492996724036)" id="Panama City"><path id="p_479.3841545835135" d="M0,0Z" fill="#1f77b4" stroke="none"/></g><g transform="translate(312.9838912177627,395.54920287204084)" id="Zadar"><path id="p_708.5330940898035" d="M0,0Z" fill="#1f77b4" stroke="none"/></g><g transform="translate(309.0546916182309,166.28454937284982)" id="Ancona"><path id="p_475.3392409910807" d="M0,0Z" fill="#1f77b4" stroke="none"/></g><g transform="translate(317.84277791600266,394.4618793080571)" id="Perugia"><path id="p_712.3046572240598" d="M0,0Z" fill="#1f77b4" stroke="none"/></g><g transform="translate(308.67896694014223,395.9422225354051)" id="L'Aquila"><path id="p_704.6211894755473" d="M0,0Z" fill="#1f77b4" stroke="none"/></g><g transform="translate(373.2124956756534,193.92580735268223)" id="Bari"><path id="p_567.1383030283356" d="M0,0Z" fill="#1f77b4" stroke="none"/></g><g transform="translate(321.40937855934914,394.1266454735377)" id="Potenza"><path id="p_715.5360240328869" d="M0,0Z" fill="#1f77b4" stroke="none"/></g><g transform="translate(371.7384138892075,369.50066551480484)" id="Rabat"><path id="p_741.2390794040123" d="M0,0Z" fill="#1f77b4" stroke="none"/></g><g transform="translate(372.60729326005037,192.08502736827407)" id="Algiers"><path id="p_564.6923206283244" d="M0,0Z" fill="#1f77b4" stroke="none"/></g><g transform="translate(311.26404319288645,165.4452556781188)" id="Tripoli"><path id="p_476.7092988710052" d="M0,0Z" fill="#1f77b4" stroke="none"/></g><g transform="translate(370.98640014197366,371.2865032002681)" id="Andacollo"><path id="p_742.2729033422418" d="M0,0Z" fill="#1f77b4" stroke="none"/></g><g transform="translate(319.83327902235305,395.2538771109264)" id="Djibouti"><path id="p_715.0871561332794" d="M0,0Z" fill="#1f77b4" stroke="none"/></g><g transform="translate(311.3453166997382,396.5835212290906)" id="Sapinuwa"><path id="p_707.9288379288288" d="M0,0Z" fill="#1f77b4" stroke="none"/></g><g transform="translate(315.7154128676142,166.02370038317093)" id="Verbania"><path id="p_481.7391132507851" d="M0,0Z" fill="#1f77b4" stroke="none"/></g><g transform="translate(307.3901557434655,165.2925507657598)" id="Asmara"><path id="p_472.68270650922534" d="M0,0Z" fill="#1f77b4" stroke="none"/></g><g transform="translate(316.2347696637161,395.5431056374756)" id="Krasnodar"><path id="p_711.7778753011917" d="M0,0Z" fill="#1f77b4" stroke="none"/></g><g transform="translate(307.01119412425254,396.928769416921)" id="Buin"><path id="p_703.9399635411735" d="M0,0Z" fill="#1f77b4" stroke="none"/></g><g transform="translate(309.6140123432975,164.4293132042286)" id="Rietavas"><path id="p_474.0433255475261" d="M0,0Z" fill="#1f77b4" stroke="none"/></g><g transform="translate(318.241058960448,396.3582213458986)" id="N'Djamena"><path id="p_714.5992803063466" d="M0,0Z" fill="#1f77b4" stroke="none"/></g><g transform="translate(309.6919704862701,397.5940593101446)" id="Niamey"><path id="p_707.2860297964147" d="M0,0Z" fill="#1f77b4" stroke="none"/></g><g transform="translate(314.09542217202414,164.960511283786)" id="Nouakchott"><path id="p_479.05593345581013" d="M0,0Z" fill="#1f77b4" stroke="none"/></g><g transform="translate(314.6113088509498,396.60098838346465)" id="Bamako"><path id="p_711.2122972344145" d="M0,0Z" fill="#1f77b4" stroke="none"/></g><g transform="translate(305.7114622720964,164.3247030793793)" id="La Calera"><path id="p_470.0361653514757" d="M0,0Z" fill="#1f77b4" stroke="none"/></g><g transform="translate(305.329342810141,397.89111918289524)" id="Banjul"><path id="p_703.2204619930362" d="M0,0Z" fill="#1f77b4" stroke="none"/></g><g transform="translate(375.0432036935512,193.29078840174157)" id="Conakry"><path id="p_568.3339920952928" d="M0,0Z" fill="#1f77b4" stroke="none"/></g><g transform="translate(322.1136157438706,395.93185762250704)" id="Bissau"><path id="p_718.0454733663776" d="M0,0Z" fill="#1f77b4" stroke="none"/></g><g transform="translate(307.94947646853217,163.4373145971386)" id="Casablanca"><path id="p_471.38679106567076" d="M0,0Z" fill="#1f77b4" stroke="none"/></g><g transform="translate(373.52274341858083,370.2562507485513)" id="Monrovia"><path id="p_743.7789941671322" d="M0,0Z" fill="#1f77b4" stroke="none"/></g><g transform="translate(316.6330507081615,397.4394476753171)" id="Praia"><path id="p_714.0724983834787" d="M0,0Z" fill="#1f77b4" stroke="none"/></g><g transform="translate(346.91046664873653,170.6889430241796)" id="Maykop"><path id="p_517.5994096729162" d="M0,0Z" fill="#1f77b4" stroke="none"/></g><g transform="translate(308.0241976703804,398.5806061916604)" id="Cañete"><path id="p_706.6048038620409" d="M0,0Z" fill="#1f77b4" stroke="none"/></g><g transform="translate(312.46024074863743,163.92083699466446)" id="Chiguayante"><path id="p_476.3810777433019" d="M0,0Z" fill="#1f77b4" stroke="none"/></g><g transform="translate(312.97273433292526,397.63530674051447)" id="Damascus"><path id="p_710.6080410734397" d="M0,0Z" fill="#1f77b4" stroke="none"/></g><g transform="translate(304.01896158772627,163.3812083267411)" id="Gütersloh"><path id="p_467.40016991446737" d="M0,0Z" fill="#1f77b4" stroke="none"/></g><g transform="translate(320.5375162068745,397.05908925989576)" id="Freetown"><path id="p_717.5966054667703" d="M0,0Z" fill="#1f77b4" stroke="none"/></g><g transform="translate(303.6337640405279,398.8290709678431)" id="Esslingen am Neckar"><path id="p_702.462835008371" d="M0,0Z" fill="#1f77b4" stroke="none"/></g><g transform="translate(374.4380012779482,191.4500084173334)" id="Abuja"><path id="p_565.8880096952817" d="M0,0Z" fill="#1f77b4" stroke="none"/></g><g transform="translate(306.27078299716305,162.4694669107581)" id="Lomé"><path id="p_468.7402499079211" d="M0,0Z" fill="#1f77b4" stroke="none"/></g><g transform="translate(315.00958989539515,398.4973304213062)" id="Porto-Novo"><path id="p_713.5069203167013" d="M0,0Z" fill="#1f77b4" stroke="none"/></g><g transform="translate(372.770729671347,372.04208843401454)" id="Amman"><path id="p_744.8128181053615" d="M0,0Z" fill="#1f77b4" stroke="none"/></g><g transform="translate(371.4158657754496,373.4273987741345)" id="Malabo"><path id="p_744.8432645495841" d="M0,0Z" fill="#1f77b4" stroke="none"/></g><g transform="translate(373.21452517779557,189.9473949782864)" id="Libreville"><path id="p_563.161920156082" d="M0,0Z" fill="#1f77b4" stroke="none"/></g><g transform="translate(306.3423463562689,399.5429559576347)" id="Bangui"><path id="p_705.8853023139036" d="M0,0Z" fill="#1f77b4" stroke="none"/></g><g transform="translate(315.7008055845911,163.8753914685102)" id="Constance"><path id="p_479.5761970531013" d="M0,0Z" fill="#1f77b4" stroke="none"/></g><g transform="translate(403.1250360307177,228.49365833536928)" id="Kinshasa"><path id="p_631.618694366087" d="M0,0Z" fill="#1f77b4" stroke="none"/></g><g transform="translate(310.8102098990485,162.90489452077423)" id="Colina"><path id="p_473.71510441982275" d="M0,0Z" fill="#1f77b4" stroke="none"/></g><g transform="translate(311.31938811945724,398.6458448215684)" id="Brazzaville"><path id="p_709.9652329410256" d="M0,0Z" fill="#1f77b4" stroke="none"/></g><g transform="translate(302.31300695585435,162.46226343783633)" id="Combarbalá"><path id="p_464.7752703936907" d="M0,0Z" fill="#1f77b4" stroke="none"/></g><g transform="translate(318.94529614496946,398.163433494868)" id="Bujumbura"><path id="p_717.1087296398375" d="M0,0Z" fill="#1f77b4" stroke="none"/></g><g transform="translate(301.9248117233829,399.74242899872365)" id="Concón"><path id="p_701.6672407221065" d="M0,0Z" fill="#1f77b4" stroke="none"/></g><g transform="translate(376.91878468523726,192.8040267984124)" id="Coronel"><path id="p_569.7228114836496" d="M0,0Z" fill="#1f77b4" stroke="none"/></g><g transform="translate(405.0564545393362,228.6497463215031)" id="Lilongwe"><path id="p_633.7062008608393" d="M0,0Z" fill="#1f77b4" stroke="none"/></g><g transform="translate(313.3710153773706,399.53164877835593)" id="Lusaka"><path id="p_712.9026641557266" d="M0,0Z" fill="#1f77b4" stroke="none"/></g><g transform="translate(304.57828231279285,161.52597215811986)" id="Manama"><path id="p_466.1042544709127" d="M0,0Z" fill="#1f77b4" stroke="none"/></g><g transform="translate(375.360074396292,370.8718446026403)" id="Catanzaro"><path id="p_746.2319189989323" d="M0,0Z" fill="#1f77b4" stroke="none"/></g><g transform="translate(574.4461269938245,281)" id="Madrid"><path id="p_938.6866002268721" d="M-1.5291026865654408e-14,83.24047323304765A83.24047323304765,83.24047323304765,0,1,1,1.5291026865654408e-14,-83.24047323304765A83.24047323304765,83.24047323304765,0,1,1,-1.5291026865654408e-14,83.24047323304765Z" fill="#9467bd" stroke="none"/></g><g transform="translate(659.6243156122808,281)" id="Florence"><path id="p_940.6243156122808" d="M0,0Z" fill="#9467bd" stroke="none"/></g><g transform="translate(659.6022751053403,282.93759003168964)" id="Naples"><path id="p_942.5398651370299" d="M0,0Z" fill="#9467bd" stroke="none"/></g><g transform="translate(659.6022751053403,279.0624099683103)" id="Belgrade"><path id="p_938.6646850736506" d="M0,0Z" fill="#9467bd" stroke="none"/></g><g transform="translate(489.3907372769938,307.5306662490221)" id="Winnipeg"><path id="p_796.9214035260159" d="M0,0Z" fill="#8c564b" stroke="none"/></g><g transform="translate(489.3907372769938,254.4693337509779)" id="Brasília"><path id="p_743.8600710279717" d="M0,0Z" fill="#2ca02c" stroke="none"/></g><g transform="translate(488.47707677676,246.97829661113218)" id="Canberra"><path id="p_735.4553733878922" d="M0,0Z" fill="#d62728" stroke="none"/></g><g transform="translate(490.4147921621686,246.97829661113218)" id="Sydney"><path id="p_737.3930887733009" d="M0,0Z" fill="#d62728" stroke="none"/></g><g transform="translate(489.4459344694643,248.6564073602)" id="Melbourne"><path id="p_738.1023418296643" d="M0,0Z" fill="#d62728" stroke="none"/></g><g transform="translate(488.51327639509196,313.2772070027605)" id="Accra"><path id="p_801.7904833978525" d="M0,0Z" fill="#ff7f0e" stroke="none"/></g></g><g id="labels"><g transform="translate(239.56088289658442,281)"><text text-anchor="middle" dominant-baseline="text-before-edge" transform="translate(0,-5.5)"><tspan x="0" y="0" dy="0" style="font-family: Arial, sans-serif; font-size: 10px; fill: black; font-weight: bold;">Lima</tspan></text></g><g transform="translate(429.53827900615545,281)"><text text-anchor="middle" dominant-baseline="text-before-edge" transform="translate(0,-5.5)"><tspan x="0" y="0" dy="0" style="font-family: Arial, sans-serif; font-size: 10px; fill: black; font-weight: bold;">Sanaa</tspan></text></g><g transform="translate(382.4042990340075,346.79762342610354)"><text text-anchor="middle" dominant-baseline="text-before-edge" transform="translate(0,-5.5)"><tspan x="0" y="0" dy="0" style="font-family: Arial, sans-serif; font-size: 10px; fill: black; font-weight: bold;">Verona</tspan></text></g><g transform="translate(382.06527672166067,216.49125482943566)"><text text-anchor="middle" dominant-baseline="text-before-edge" transform="translate(0,-5.5)"><tspan x="0" y="0" dy="0" style="font-family: Arial, sans-serif; font-size: 10px; fill: black; font-weight: bold;">Brunswick</tspan></text></g><g transform="translate(355.7906174411987,186.1528924580332)"><text text-anchor="middle" dominant-baseline="text-before-edge" transform="translate(0,-5.5)"><tspan x="0" y="0" dy="0" style="font-family: Arial, sans-serif; font-size: 10px; fill: black; font-weight: bold;">Ulm</tspan></text></g><g transform="translate(354.6944213338038,375.6682126158074)"><text text-anchor="middle" dominant-baseline="text-before-edge" transform="translate(0,-5.5)"><tspan x="0" y="0" dy="0" style="font-family: Arial, sans-serif; font-size: 10px; fill: black; font-weight: bold;">Trier</tspan></text></g><g transform="translate(331.83882820103645,164.8398661792151)"><text text-anchor="middle" dominant-baseline="text-before-edge" transform="translate(0,-5.5)"><tspan x="0" y="0" dy="0" style="font-family: Arial, sans-serif; font-size: 10px; fill: black; font-weight: bold;">Cottbus</tspan></text></g><g transform="translate(332.6815110242482,390.7692094089351)"><text text-anchor="middle" dominant-baseline="text-before-edge" transform="translate(0,-5.5)"><tspan x="0" y="0" dy="0" style="font-family: Arial, sans-serif; font-size: 10px; fill: black; font-weight: bold;">Skierniewice</tspan></text></g><g transform="translate(317.15295451213234,171.59938535072757)"><text text-anchor="middle" dominant-baseline="text-before-edge" transform="translate(0,-5.5)"><tspan x="0" y="0" dy="0" style="font-family: Arial, sans-serif; font-size: 10px; fill: black; font-weight: bold;">Caserta</tspan></text></g><g transform="translate(321.47320138910976,387.20450151669655)"><text text-anchor="middle" dominant-baseline="text-before-edge" transform="translate(0,-5.5)"><tspan x="0" y="0" dy="0" style="font-family: Arial, sans-serif; font-size: 10px; fill: black; font-weight: bold;">Juba</tspan></text></g><g transform="translate(371.43835935819766,194.7050257058633)"><text text-anchor="middle" dominant-baseline="text-before-edge" transform="translate(0,-5.5)"><tspan x="0" y="0" dy="0" style="font-family: Arial, sans-serif; font-size: 10px; fill: black; font-weight: bold;">Dar es Salaam</tspan></text></g><g transform="translate(319.93032637788883,388.376797390015)"><text text-anchor="middle" dominant-baseline="text-before-edge" transform="translate(0,-5.5)"><tspan x="0" y="0" dy="0" style="font-family: Arial, sans-serif; font-size: 10px; fill: black; font-weight: bold;">Khartoum</tspan></text></g><g transform="translate(370.01773394836994,368.6095979213819)"><text text-anchor="middle" dominant-baseline="text-before-edge" transform="translate(0,-5.5)"><tspan x="0" y="0" dy="0" style="font-family: Arial, sans-serif; font-size: 10px; fill: black; font-weight: bold;">Whitehorse</tspan></text></g><g transform="translate(318.3706763355888,389.52668114953286)"><text text-anchor="middle" dominant-baseline="text-before-edge" transform="translate(0,-5.5)"><tspan x="0" y="0" dy="0" style="font-family: Arial, sans-serif; font-size: 10px; fill: black; font-weight: bold;">Yellowknife</tspan></text></g><g transform="translate(402.0990514797713,230.13746386403398)"><text text-anchor="middle" dominant-baseline="text-before-edge" transform="translate(0,-5.5)"><tspan x="0" y="0" dy="0" style="font-family: Arial, sans-serif; font-size: 10px; fill: black; font-weight: bold;">Leipzig</tspan></text></g><g transform="translate(320.9433299240167,390.02863416475446)"><text text-anchor="middle" dominant-baseline="text-before-edge" transform="translate(0,-5.5)"><tspan x="0" y="0" dy="0" style="font-family: Arial, sans-serif; font-size: 10px; fill: black; font-weight: bold;">Edmonton</tspan></text></g><g transform="translate(316.79457679859274,390.6539127869216)"><text text-anchor="middle" dominant-baseline="text-before-edge" transform="translate(0,-5.5)"><tspan x="0" y="0" dy="0" style="font-family: Arial, sans-serif; font-size: 10px; fill: black; font-weight: bold;">Regina</tspan></text></g><g transform="translate(402.8436371248587,332.2572422615229)"><text text-anchor="middle" dominant-baseline="text-before-edge" transform="translate(0,-5.5)"><tspan x="0" y="0" dy="0" style="font-family: Arial, sans-serif; font-size: 10px; fill: black; font-weight: bold;">Charlottetown</tspan></text></g><g transform="translate(319.3836798817167,391.17851792427234)"><text text-anchor="middle" dominant-baseline="text-before-edge" transform="translate(0,-5.5)"><tspan x="0" y="0" dy="0" style="font-family: Arial, sans-serif; font-size: 10px; fill: black; font-weight: bold;">Fredericton</tspan></text></g><g transform="translate(315.5643564236651,170.4898372318217)"><text text-anchor="middle" dominant-baseline="text-before-edge" transform="translate(0,-5.5)"><tspan x="0" y="0" dy="0" style="font-family: Arial, sans-serif; font-size: 10px; fill: black; font-weight: bold;">Halifax</tspan></text></g><g transform="translate(315.20235673668765,391.7582570218938)"><text text-anchor="middle" dominant-baseline="text-before-edge" transform="translate(0,-5.5)"><tspan x="0" y="0" dy="0" style="font-family: Arial, sans-serif; font-size: 10px; fill: black; font-weight: bold;">Birmingham</tspan></text></g><g transform="translate(317.8075803447206,392.30574956166106)"><text text-anchor="middle" dominant-baseline="text-before-edge" transform="translate(0,-5.5)"><tspan x="0" y="0" dy="0" style="font-family: Arial, sans-serif; font-size: 10px; fill: black; font-weight: bold;">Nassau</tspan></text></g><g transform="translate(313.9598945867966,169.4033552352465)"><text text-anchor="middle" dominant-baseline="text-before-edge" transform="translate(0,-5.5)"><tspan x="0" y="0" dy="0" style="font-family: Arial, sans-serif; font-size: 10px; fill: black; font-weight: bold;">Palermo</tspan></text></g><g transform="translate(313.59434848440117,392.8394833513123)"><text text-anchor="middle" dominant-baseline="text-before-edge" transform="translate(0,-5.5)"><tspan x="0" y="0" dy="0" style="font-family: Arial, sans-serif; font-size: 10px; fill: black; font-weight: bold;">Parma</tspan></text></g><g transform="translate(316.1236771487317,168.63460106320048)"><text text-anchor="middle" dominant-baseline="text-before-edge" transform="translate(0,-5.5)"><tspan x="0" y="0" dy="0" style="font-family: Arial, sans-serif; font-size: 10px; fill: black; font-weight: bold;">Pescara</tspan></text></g><g transform="translate(316.21536028281554,393.4100937966333)"><text text-anchor="middle" dominant-baseline="text-before-edge" transform="translate(0,-5.5)"><tspan x="0" y="0" dy="0" style="font-family: Arial, sans-serif; font-size: 10px; fill: black; font-weight: bold;">Siena</tspan></text></g><g transform="translate(321.0110975149038,392.23030343569616)"><text text-anchor="middle" dominant-baseline="text-before-edge" transform="translate(0,-5.5)"><tspan x="0" y="0" dy="0" style="font-family: Arial, sans-serif; font-size: 10px; fill: black; font-weight: bold;">Urbino</tspan></text></g><g transform="translate(312.3399038912065,168.34016613586158)"><text text-anchor="middle" dominant-baseline="text-before-edge" transform="translate(0,-5.5)"><tspan x="0" y="0" dy="0" style="font-family: Arial, sans-serif; font-size: 10px; fill: black; font-weight: bold;">Udine</tspan></text></g><g transform="translate(311.9708876716348,393.8973660973014)"><text text-anchor="middle" dominant-baseline="text-before-edge" transform="translate(0,-5.5)"><tspan x="0" y="0" dy="0" style="font-family: Arial, sans-serif; font-size: 10px; fill: black; font-weight: bold;">Asunción</tspan></text></g><g transform="translate(314.5192153118632,167.54811906662528)"><text text-anchor="middle" dominant-baseline="text-before-edge" transform="translate(0,-5.5)"><tspan x="0" y="0" dy="0" style="font-family: Arial, sans-serif; font-size: 10px; fill: black; font-weight: bold;">Würzburg</tspan></text></g><g transform="translate(314.60735203052906,394.49132012605185)"><text text-anchor="middle" dominant-baseline="text-before-edge" transform="translate(0,-5.5)"><tspan x="0" y="0" dy="0" style="font-family: Arial, sans-serif; font-size: 10px; fill: black; font-weight: bold;">Paramaribo</tspan></text></g><g transform="translate(310.70472246781986,167.30049184674)"><text text-anchor="middle" dominant-baseline="text-before-edge" transform="translate(0,-5.5)"><tspan x="0" y="0" dy="0" style="font-family: Arial, sans-serif; font-size: 10px; fill: black; font-weight: bold;">Kathmandu</tspan></text></g><g transform="translate(319.4349979779077,393.3575350730849)"><text text-anchor="middle" dominant-baseline="text-before-edge" transform="translate(0,-5.5)"><tspan x="0" y="0" dy="0" style="font-family: Arial, sans-serif; font-size: 10px; fill: black; font-weight: bold;">Belmopan</tspan></text></g><g transform="translate(344.30288526631523,388.9589586086464)"><text text-anchor="middle" dominant-baseline="text-before-edge" transform="translate(0,-5.5)"><tspan x="0" y="0" dy="0" style="font-family: Arial, sans-serif; font-size: 10px; fill: black; font-weight: bold;">San José</tspan></text></g><g transform="translate(310.3323131536103,394.93168445435117)"><text text-anchor="middle" dominant-baseline="text-before-edge" transform="translate(0,-5.5)"><tspan x="0" y="0" dy="0" style="font-family: Arial, sans-serif; font-size: 10px; fill: black; font-weight: bold;">Perth</tspan></text></g><g transform="translate(312.89922461627316,166.48492996724036)"><text text-anchor="middle" dominant-baseline="text-before-edge" transform="translate(0,-5.5)"><tspan x="0" y="0" dy="0" style="font-family: Arial, sans-serif; font-size: 10px; fill: black; font-weight: bold;">Panama City</tspan></text></g><g transform="translate(312.9838912177627,395.54920287204084)"><text text-anchor="middle" dominant-baseline="text-before-edge" transform="translate(0,-5.5)"><tspan x="0" y="0" dy="0" style="font-family: Arial, sans-serif; font-size: 10px; fill: black; font-weight: bold;">Zadar</tspan></text></g><g transform="translate(309.0546916182309,166.28454937284982)"><text text-anchor="middle" dominant-baseline="text-before-edge" transform="translate(0,-5.5)"><tspan x="0" y="0" dy="0" style="font-family: Arial, sans-serif; font-size: 10px; fill: black; font-weight: bold;">Ancona</tspan></text></g><g transform="translate(317.84277791600266,394.4618793080571)"><text text-anchor="middle" dominant-baseline="text-before-edge" transform="translate(0,-5.5)"><tspan x="0" y="0" dy="0" style="font-family: Arial, sans-serif; font-size: 10px; fill: black; font-weight: bold;">Perugia</tspan></text></g><g transform="translate(308.67896694014223,395.9422225354051)"><text text-anchor="middle" dominant-baseline="text-before-edge" transform="translate(0,-5.5)"><tspan x="0" y="0" dy="0" style="font-family: Arial, sans-serif; font-size: 10px; fill: black; font-weight: bold;">L'Aquila</tspan></text></g><g transform="translate(373.2124956756534,193.92580735268223)"><text text-anchor="middle" dominant-baseline="text-before-edge" transform="translate(0,-5.5)"><tspan x="0" y="0" dy="0" style="font-family: Arial, sans-serif; font-size: 10px; fill: black; font-weight: bold;">Bari</tspan></text></g><g transform="translate(321.40937855934914,394.1266454735377)"><text text-anchor="middle" dominant-baseline="text-before-edge" transform="translate(0,-5.5)"><tspan x="0" y="0" dy="0" style="font-family: Arial, sans-serif; font-size: 10px; fill: black; font-weight: bold;">Potenza</tspan></text></g><g transform="translate(371.7384138892075,369.50066551480484)"><text text-anchor="middle" dominant-baseline="text-before-edge" transform="translate(0,-5.5)"><tspan x="0" y="0" dy="0" style="font-family: Arial, sans-serif; font-size: 10px; fill: black; font-weight: bold;">Rabat</tspan></text></g><g transform="translate(372.60729326005037,192.08502736827407)"><text text-anchor="middle" dominant-baseline="text-before-edge" transform="translate(0,-5.5)"><tspan x="0" y="0" dy="0" style="font-family: Arial, sans-serif; font-size: 10px; fill: black; font-weight: bold;">Algiers</tspan></text></g><g transform="translate(311.26404319288645,165.4452556781188)"><text text-anchor="middle" dominant-baseline="text-before-edge" transform="translate(0,-5.5)"><tspan x="0" y="0" dy="0" style="font-family: Arial, sans-serif; font-size: 10px; fill: black; font-weight: bold;">Tripoli</tspan></text></g><g transform="translate(370.98640014197366,371.2865032002681)"><text text-anchor="middle" dominant-baseline="text-before-edge" transform="translate(0,-5.5)"><tspan x="0" y="0" dy="0" style="font-family: Arial, sans-serif; font-size: 10px; fill: black; font-weight: bold;">Andacollo</tspan></text></g><g transform="translate(319.83327902235305,395.2538771109264)"><text text-anchor="middle" dominant-baseline="text-before-edge" transform="translate(0,-5.5)"><tspan x="0" y="0" dy="0" style="font-family: Arial, sans-serif; font-size: 10px; fill: black; font-weight: bold;">Djibouti</tspan></text></g><g transform="translate(311.3453166997382,396.5835212290906)"><text text-anchor="middle" dominant-baseline="text-before-edge" transform="translate(0,-5.5)"><tspan x="0" y="0" dy="0" style="font-family: Arial, sans-serif; font-size: 10px; fill: black; font-weight: bold;">Sapinuwa</tspan></text></g><g transform="translate(315.7154128676142,166.02370038317093)"><text text-anchor="middle" dominant-baseline="text-before-edge" transform="translate(0,-5.5)"><tspan x="0" y="0" dy="0" style="font-family: Arial, sans-serif; font-size: 10px; fill: black; font-weight: bold;">Verbania</tspan></text></g><g transform="translate(307.3901557434655,165.2925507657598)"><text text-anchor="middle" dominant-baseline="text-before-edge" transform="translate(0,-5.5)"><tspan x="0" y="0" dy="0" style="font-family: Arial, sans-serif; font-size: 10px; fill: black; font-weight: bold;">Asmara</tspan></text></g><g transform="translate(316.2347696637161,395.5431056374756)"><text text-anchor="middle" dominant-baseline="text-before-edge" transform="translate(0,-5.5)"><tspan x="0" y="0" dy="0" style="font-family: Arial, sans-serif; font-size: 10px; fill: black; font-weight: bold;">Krasnodar</tspan></text></g><g transform="translate(307.01119412425254,396.928769416921)"><text text-anchor="middle" dominant-baseline="text-before-edge" transform="translate(0,-5.5)"><tspan x="0" y="0" dy="0" style="font-family: Arial, sans-serif; font-size: 10px; fill: black; font-weight: bold;">Buin</tspan></text></g><g transform="translate(309.6140123432975,164.4293132042286)"><text text-anchor="middle" dominant-baseline="text-before-edge" transform="translate(0,-5.5)"><tspan x="0" y="0" dy="0" style="font-family: Arial, sans-serif; font-size: 10px; fill: black; font-weight: bold;">Rietavas</tspan></text></g><g transform="translate(318.241058960448,396.3582213458986)"><text text-anchor="middle" dominant-baseline="text-before-edge" transform="translate(0,-5.5)"><tspan x="0" y="0" dy="0" style="font-family: Arial, sans-serif; font-size: 10px; fill: black; font-weight: bold;">N'Djamena</tspan></text></g><g transform="translate(309.6919704862701,397.5940593101446)"><text text-anchor="middle" dominant-baseline="text-before-edge" transform="translate(0,-5.5)"><tspan x="0" y="0" dy="0" style="font-family: Arial, sans-serif; font-size: 10px; fill: black; font-weight: bold;">Niamey</tspan></text></g><g transform="translate(314.09542217202414,164.960511283786)"><text text-anchor="middle" dominant-baseline="text-before-edge" transform="translate(0,-5.5)"><tspan x="0" y="0" dy="0" style="font-family: Arial, sans-serif; font-size: 10px; fill: black; font-weight: bold;">Nouakchott</tspan></text></g><g transform="translate(314.6113088509498,396.60098838346465)"><text text-anchor="middle" dominant-baseline="text-before-edge" transform="translate(0,-5.5)"><tspan x="0" y="0" dy="0" style="font-family: Arial, sans-serif; font-size: 10px; fill: black; font-weight: bold;">Bamako</tspan></text></g><g transform="translate(305.7114622720964,164.3247030793793)"><text text-anchor="middle" dominant-baseline="text-before-edge" transform="translate(0,-5.5)"><tspan x="0" y="0" dy="0" style="font-family: Arial, sans-serif; font-size: 10px; fill: black; font-weight: bold;">La Calera</tspan></text></g><g transform="translate(305.329342810141,397.89111918289524)"><text text-anchor="middle" dominant-baseline="text-before-edge" transform="translate(0,-5.5)"><tspan x="0" y="0" dy="0" style="font-family: Arial, sans-serif; font-size: 10px; fill: black; font-weight: bold;">Banjul</tspan></text></g><g transform="translate(375.0432036935512,193.29078840174157)"><text text-anchor="middle" dominant-baseline="text-before-edge" transform="translate(0,-5.5)"><tspan x="0" y="0" dy="0" style="font-family: Arial, sans-serif; font-size: 10px; fill: black; font-weight: bold;">Conakry</tspan></text></g><g transform="translate(322.1136157438706,395.93185762250704)"><text text-anchor="middle" dominant-baseline="text-before-edge" transform="translate(0,-5.5)"><tspan x="0" y="0" dy="0" style="font-family: Arial, sans-serif; font-size: 10px; fill: black; font-weight: bold;">Bissau</tspan></text></g><g transform="translate(307.94947646853217,163.4373145971386)"><text text-anchor="middle" dominant-baseline="text-before-edge" transform="translate(0,-5.5)"><tspan x="0" y="0" dy="0" style="font-family: Arial, sans-serif; font-size: 10px; fill: black; font-weight: bold;">Casablanca</tspan></text></g><g transform="translate(373.52274341858083,370.2562507485513)"><text text-anchor="middle" dominant-baseline="text-before-edge" transform="translate(0,-5.5)"><tspan x="0" y="0" dy="0" style="font-family: Arial, sans-serif; font-size: 10px; fill: black; font-weight: bold;">Monrovia</tspan></text></g><g transform="translate(316.6330507081615,397.4394476753171)"><text text-anchor="middle" dominant-baseline="text-before-edge" transform="translate(0,-5.5)"><tspan x="0" y="0" dy="0" style="font-family: Arial, sans-serif; font-size: 10px; fill: black; font-weight: bold;">Praia</tspan></text></g><g transform="translate(346.91046664873653,170.6889430241796)"><text text-anchor="middle" dominant-baseline="text-before-edge" transform="translate(0,-5.5)"><tspan x="0" y="0" dy="0" style="font-family: Arial, sans-serif; font-size: 10px; fill: black; font-weight: bold;">Maykop</tspan></text></g><g transform="translate(308.0241976703804,398.5806061916604)"><text text-anchor="middle" dominant-baseline="text-before-edge" transform="translate(0,-5.5)"><tspan x="0" y="0" dy="0" style="font-family: Arial, sans-serif; font-size: 10px; fill: black; font-weight: bold;">Cañete</tspan></text></g><g transform="translate(312.46024074863743,163.92083699466446)"><text text-anchor="middle" dominant-baseline="text-before-edge" transform="translate(0,-5.5)"><tspan x="0" y="0" dy="0" style="font-family: Arial, sans-serif; font-size: 10px; fill: black; font-weight: bold;">Chiguayante</tspan></text></g><g transform="translate(312.97273433292526,397.63530674051447)"><text text-anchor="middle" dominant-baseline="text-before-edge" transform="translate(0,-5.5)"><tspan x="0" y="0" dy="0" style="font-family: Arial, sans-serif; font-size: 10px; fill: black; font-weight: bold;">Damascus</tspan></text></g><g transform="translate(304.01896158772627,163.3812083267411)"><text text-anchor="middle" dominant-baseline="text-before-edge" transform="translate(0,-5.5)"><tspan x="0" y="0" dy="0" style="font-family: Arial, sans-serif; font-size: 10px; fill: black; font-weight: bold;">Gütersloh</tspan></text></g><g transform="translate(320.5375162068745,397.05908925989576)"><text text-anchor="middle" dominant-baseline="text-before-edge" transform="translate(0,-5.5)"><tspan x="0" y="0" dy="0" style="font-family: Arial, sans-serif; font-size: 10px; fill: black; font-weight: bold;">Freetown</tspan></text></g><g transform="translate(303.6337640405279,398.8290709678431)"><text text-anchor="middle" dominant-baseline="text-before-edge" transform="translate(0,-5.5)"><tspan x="0" y="0" dy="0" style="font-family: Arial, sans-serif; font-size: 10px; fill: black; font-weight: bold;">Esslingen am Neckar</tspan></text></g><g transform="translate(374.4380012779482,191.4500084173334)"><text text-anchor="middle" dominant-baseline="text-before-edge" transform="translate(0,-5.5)"><tspan x="0" y="0" dy="0" style="font-family: Arial, sans-serif; font-size: 10px; fill: black; font-weight: bold;">Abuja</tspan></text></g><g transform="translate(306.27078299716305,162.4694669107581)"><text text-anchor="middle" dominant-baseline="text-before-edge" transform="translate(0,-5.5)"><tspan x="0" y="0" dy="0" style="font-family: Arial, sans-serif; font-size: 10px; fill: black; font-weight: bold;">Lomé</tspan></text></g><g transform="translate(315.00958989539515,398.4973304213062)"><text text-anchor="middle" dominant-baseline="text-before-edge" transform="translate(0,-5.5)"><tspan x="0" y="0" dy="0" style="font-family: Arial, sans-serif; font-size: 10px; fill: black; font-weight: bold;">Porto-Novo</tspan></text></g><g transform="translate(372.770729671347,372.04208843401454)"><text text-anchor="middle" dominant-baseline="text-before-edge" transform="translate(0,-5.5)"><tspan x="0" y="0" dy="0" style="font-family: Arial, sans-serif; font-size: 10px; fill: black; font-weight: bold;">Amman</tspan></text></g><g transform="translate(371.4158657754496,373.4273987741345)"><text text-anchor="middle" dominant-baseline="text-before-edge" transform="translate(0,-5.5)"><tspan x="0" y="0" dy="0" style="font-family: Arial, sans-serif; font-size: 10px; fill: black; font-weight: bold;">Malabo</tspan></text></g><g transform="translate(373.21452517779557,189.9473949782864)"><text text-anchor="middle" dominant-baseline="text-before-edge" transform="translate(0,-5.5)"><tspan x="0" y="0" dy="0" style="font-family: Arial, sans-serif; font-size: 10px; fill: black; font-weight: bold;">Libreville</tspan></text></g><g transform="translate(306.3423463562689,399.5429559576347)"><text text-anchor="middle" dominant-baseline="text-before-edge" transform="translate(0,-5.5)"><tspan x="0" y="0" dy="0" style="font-family: Arial, sans-serif; font-size: 10px; fill: black; font-weight: bold;">Bangui</tspan></text></g><g transform="translate(315.7008055845911,163.8753914685102)"><text text-anchor="middle" dominant-baseline="text-before-edge" transform="translate(0,-5.5)"><tspan x="0" y="0" dy="0" style="font-family: Arial, sans-serif; font-size: 10px; fill: black; font-weight: bold;">Constance</tspan></text></g><g transform="translate(403.1250360307177,228.49365833536928)"><text text-anchor="middle" dominant-baseline="text-before-edge" transform="translate(0,-5.5)"><tspan x="0" y="0" dy="0" style="font-family: Arial, sans-serif; font-size: 10px; fill: black; font-weight: bold;">Kinshasa</tspan></text></g><g transform="translate(310.8102098990485,162.90489452077423)"><text text-anchor="middle" dominant-baseline="text-before-edge" transform="translate(0,-5.5)"><tspan x="0" y="0" dy="0" style="font-family: Arial, sans-serif; font-size: 10px; fill: black; font-weight: bold;">Colina</tspan></text></g><g transform="translate(311.31938811945724,398.6458448215684)"><text text-anchor="middle" dominant-baseline="text-before-edge" transform="translate(0,-5.5)"><tspan x="0" y="0" dy="0" style="font-family: Arial, sans-serif; font-size: 10px; fill: black; font-weight: bold;">Brazzaville</tspan></text></g><g transform="translate(302.31300695585435,162.46226343783633)"><text text-anchor="middle" dominant-baseline="text-before-edge" transform="translate(0,-5.5)"><tspan x="0" y="0" dy="0" style="font-family: Arial, sans-serif; font-size: 10px; fill: black; font-weight: bold;">Combarbalá</tspan></text></g><g transform="translate(318.94529614496946,398.163433494868)"><text text-anchor="middle" dominant-baseline="text-before-edge" transform="translate(0,-5.5)"><tspan x="0" y="0" dy="0" style="font-family: Arial, sans-serif; font-size: 10px; fill: black; font-weight: bold;">Bujumbura</tspan></text></g><g transform="translate(301.9248117233829,399.74242899872365)"><text text-anchor="middle" dominant-baseline="text-before-edge" transform="translate(0,-5.5)"><tspan x="0" y="0" dy="0" style="font-family: Arial, sans-serif; font-size: 10px; fill: black; font-weight: bold;">Concón</tspan></text></g><g transform="translate(376.91878468523726,192.8040267984124)"><text text-anchor="middle" dominant-baseline="text-before-edge" transform="translate(0,-5.5)"><tspan x="0" y="0" dy="0" style="font-family: Arial, sans-serif; font-size: 10px; fill: black; font-weight: bold;">Coronel</tspan></text></g><g transform="translate(405.0564545393362,228.6497463215031)"><text text-anchor="middle" dominant-baseline="text-before-edge" transform="translate(0,-5.5)"><tspan x="0" y="0" dy="0" style="font-family: Arial, sans-serif; font-size: 10px; fill: black; font-weight: bold;">Lilongwe</tspan></text></g><g transform="translate(313.3710153773706,399.53164877835593)"><text text-anchor="middle" dominant-baseline="text-before-edge" transform="translate(0,-5.5)"><tspan x="0" y="0" dy="0" style="font-family: Arial, sans-serif; font-size: 10px; fill: black; font-weight: bold;">Lusaka</tspan></text></g><g transform="translate(304.57828231279285,161.52597215811986)"><text text-anchor="middle" dominant-baseline="text-before-edge" transform="translate(0,-5.5)"><tspan x="0" y="0" dy="0" style="font-family: Arial, sans-serif; font-size: 10px; fill: black; font-weight: bold;">Manama</tspan></text></g><g transform="translate(375.360074396292,370.8718446026403)"><text text-anchor="middle" dominant-baseline="text-before-edge" transform="translate(0,-5.5)"><tspan x="0" y="0" dy="0" style="font-family: Arial, sans-serif; font-size: 10px; fill: black; font-weight: bold;">Catanzaro</tspan></text></g><g transform="translate(574.4461269938245,281)"><text text-anchor="middle" dominant-baseline="text-before-edge" transform="translate(0,-5.5)"><tspan x="0" y="0" dy="0" style="font-family: Arial, sans-serif; font-size: 10px; fill: black; font-weight: bold;">Madrid</tspan></text></g><g transform="translate(659.6243156122808,281)"><text text-anchor="middle" dominant-baseline="text-before-edge" transform="translate(0,-5.5)"><tspan x="0" y="0" dy="0" style="font-family: Arial, sans-serif; font-size: 10px; fill: black; font-weight: bold;">Florence</tspan></text></g><g transform="translate(659.6022751053403,282.93759003168964)"><text text-anchor="middle" dominant-baseline="text-before-edge" transform="translate(0,-5.5)"><tspan x="0" y="0" dy="0" style="font-family: Arial, sans-serif; font-size: 10px; fill: black; font-weight: bold;">Naples</tspan></text></g><g transform="translate(659.6022751053403,279.0624099683103)"><text text-anchor="middle" dominant-baseline="text-before-edge" transform="translate(0,-5.5)"><tspan x="0" y="0" dy="0" style="font-family: Arial, sans-serif; font-size: 10px; fill: black; font-weight: bold;">Belgrade</tspan></text></g><g transform="translate(489.3907372769938,307.5306662490221)"><text text-anchor="middle" dominant-baseline="text-before-edge" transform="translate(0,-5.5)"><tspan x="0" y="0" dy="0" style="font-family: Arial, sans-serif; font-size: 10px; fill: black; font-weight: bold;">Winnipeg</tspan></text></g><g transform="translate(489.3907372769938,254.4693337509779)"><text text-anchor="middle" dominant-baseline="text-before-edge" transform="translate(0,-5.5)"><tspan x="0" y="0" dy="0" style="font-family: Arial, sans-serif; font-size: 10px; fill: black; font-weight: bold;">Brasília</tspan></text></g><g transform="translate(488.47707677676,246.97829661113218)"><text text-anchor="middle" dominant-baseline="text-before-edge" transform="translate(0,-5.5)"><tspan x="0" y="0" dy="0" style="font-family: Arial, sans-serif; font-size: 10px; fill: black; font-weight: bold;">Canberra</tspan></text></g><g transform="translate(490.4147921621686,246.97829661113218)"><text text-anchor="middle" dominant-baseline="text-before-edge" transform="translate(0,-5.5)"><tspan x="0" y="0" dy="0" style="font-family: Arial, sans-serif; font-size: 10px; fill: black; font-weight: bold;">Sydney</tspan></text></g><g transform="translate(489.4459344694643,248.6564073602)"><text text-anchor="middle" dominant-baseline="text-before-edge" transform="translate(0,-5.5)"><tspan x="0" y="0" dy="0" style="font-family: Arial, sans-serif; font-size: 10px; fill: black; font-weight: bold;">Melbourne</tspan></text></g><g transform="translate(488.51327639509196,313.2772070027605)"><text text-anchor="middle" dominant-baseline="text-before-edge" transform="translate(0,-5.5)"><tspan x="0" y="0" dy="0" style="font-family: Arial, sans-serif; font-size: 10px; fill: black; font-weight: bold;">Accra</tspan></text></g></g></g></svg>